<?xml version="1.0" standalone="no"?>
<!DOCTYPE svg PUBLIC "-//W3C//DTD SVG 20010904//EN"
 "http://www.w3.org/TR/2001/REC-SVG-20010904/DTD/svg10.dtd">
<svg version="1.0" xmlns="http://www.w3.org/2000/svg"
 width="1024.000000pt" height="1024.000000pt" viewBox="0 0 1024.000000 1024.000000"
 preserveAspectRatio="xMidYMid meet">

<g transform="translate(0.000000,1024.000000) scale(0.100000,-0.100000)"
fill="#000000" stroke="none">
<path d="M3280 5733 c0 -577 -3 -1245 -7 -1485 l-6 -438 192 0 191 0 0 553 0
552 58 -60 c123 -127 605 -650 777 -843 l180 -201 258 -1 c204 0 257 3 251 13
-4 6 -29 35 -54 62 -26 28 -64 70 -86 95 -98 114 -334 361 -616 646 l-308 310
112 104 c62 57 160 147 218 200 114 105 290 267 528 484 84 77 152 141 152
143 0 2 -110 3 -244 3 l-245 0 -29 -27 c-16 -16 -184 -170 -373 -343 -189
-173 -395 -364 -459 -423 l-115 -108 -3 906 -2 905 -185 0 -185 0 0 -1047z"/>
<path d="M6483 6618 c-103 -279 -194 -526 -353 -963 -95 -258 -234 -639 -310
-845 -76 -206 -185 -508 -243 -670 -58 -162 -109 -303 -112 -312 -7 -17 7 -18
206 -18 l214 0 74 203 c40 111 106 290 146 397 l72 195 615 3 616 2 120 -332
c66 -183 130 -363 143 -400 l24 -68 227 0 c126 0 228 2 228 4 0 2 -41 113 -91
247 -50 134 -101 273 -114 309 -12 36 -80 218 -150 405 -172 462 -342 923
-611 1657 l-109 298 -275 0 -275 0 -42 -112z m432 -618 c59 -162 127 -347 150
-410 24 -63 84 -227 134 -363 50 -137 93 -253 96 -258 4 -5 -187 -9 -493 -9
l-499 0 102 283 c280 776 389 1067 396 1060 4 -4 55 -141 114 -303z"/>
<path d="M8560 6631 c-123 -38 -199 -135 -200 -255 0 -82 17 -131 67 -186 129
-143 351 -116 438 55 38 75 40 167 5 239 -54 112 -199 180 -310 147z"/>
<path d="M1957 5889 c-165 -19 -306 -58 -412 -113 -81 -42 -185 -142 -224
-216 -81 -151 -83 -408 -4 -552 57 -104 188 -195 355 -246 36 -12 173 -44 303
-72 382 -83 475 -115 534 -187 39 -47 55 -103 48 -170 -15 -143 -127 -218
-365 -244 -209 -22 -485 20 -794 122 -65 21 -120 39 -123 39 -3 0 -5 -83 -5
-185 0 -102 3 -185 6 -185 3 0 47 -11 97 -24 239 -63 471 -96 689 -96 426 0
724 122 833 343 52 105 65 171 61 317 -2 102 -7 136 -26 185 -50 131 -125 207
-275 280 -119 59 -244 96 -514 155 -339 75 -407 103 -452 192 -30 59 -23 152
16 208 103 149 510 169 1023 51 l122 -28 0 178 c0 160 -2 178 -17 183 -10 3
-88 17 -173 31 -256 41 -530 55 -703 34z"/>
<path d="M8430 4840 l0 -1030 195 0 195 0 0 1030 0 1030 -195 0 -195 0 0
-1030z"/>
</g>
</svg>
