<?xml version="1.0" encoding="utf-8" ?>
<svg baseProfile="tiny" height="100%" version="1.2" width="100%" xmlns="http://www.w3.org/2000/svg" xmlns:ev="http://www.w3.org/2001/xml-events" xmlns:xlink="http://www.w3.org/1999/xlink"><defs /><polygon fill="black" points="843,437 843,642 881,642 881,437" /><polygon fill="black" points="202,434 201,435 192,435 191,436 186,436 185,437 180,437 179,438 176,438 175,439 172,439 171,440 168,440 167,441 166,441 165,442 163,442 162,443 160,443 159,444 158,444 157,445 156,445 155,446 154,446 153,447 152,447 150,449 149,449 147,451 146,451 135,462 135,463 133,465 133,466 132,467 132,468 131,469 131,470 130,471 130,472 129,473 129,475 128,476 128,479 127,480 127,485 126,486 126,495 125,496 126,497 126,506 127,507 127,511 128,512 128,515 129,516 129,518 130,519 130,520 131,521 131,522 132,523 132,524 134,526 134,527 143,536 144,536 146,538 147,538 149,540 150,540 151,541 152,541 153,542 155,542 156,543 157,543 158,544 159,544 160,545 162,545 163,546 165,546 166,547 168,547 169,548 172,548 173,549 176,549 177,550 180,550 181,551 185,551 186,552 189,552 190,553 194,553 195,554 199,554 200,555 204,555 205,556 208,556 209,557 213,557 214,558 217,558 218,559 221,559 222,560 225,560 226,561 229,561 230,562 232,562 233,563 235,563 236,564 238,564 239,565 240,565 241,566 242,566 243,567 244,567 245,568 246,568 252,574 252,575 254,577 254,578 255,579 255,582 256,583 256,592 255,593 255,596 254,597 254,598 253,599 253,600 251,602 251,603 249,605 248,605 245,608 244,608 242,610 240,610 239,611 238,611 237,612 234,612 233,613 231,613 230,614 225,614 224,615 215,615 214,616 198,616 197,615 189,615 188,614 182,614 181,613 176,613 175,612 171,612 170,611 167,611 166,610 162,610 161,609 158,609 157,608 155,608 154,607 151,607 150,606 148,606 147,605 145,605 144,604 141,604 140,603 138,603 137,602 135,602 134,601 133,601 132,600 130,600 129,599 127,599 127,635 129,635 130,636 133,636 134,637 136,637 137,638 141,638 142,639 144,639 145,640 149,640 150,641 154,641 155,642 160,642 161,643 164,643 165,644 170,644 171,645 177,645 178,646 188,646 189,647 222,647 223,646 230,646 231,645 237,645 238,644 242,644 243,643 246,643 247,642 250,642 251,641 253,641 254,640 256,640 257,639 259,639 260,638 261,638 262,637 263,637 264,636 265,636 266,635 267,635 268,634 269,634 271,632 272,632 275,629 276,629 285,620 285,619 287,617 287,616 288,615 288,614 289,613 289,612 290,611 290,610 291,609 291,607 292,606 292,605 293,604 293,600 294,599 294,596 295,595 294,594 295,593 295,573 294,572 294,568 293,567 293,565 292,564 292,562 291,561 291,560 290,559 290,557 288,555 288,554 287,553 287,552 284,549 284,548 283,547 282,547 277,542 276,542 274,540 273,540 271,538 270,538 269,537 268,537 267,536 266,536 265,535 264,535 263,534 262,534 261,533 259,533 258,532 257,532 256,531 255,531 254,530 251,530 250,529 248,529 247,528 245,528 244,527 242,527 241,526 238,526 237,525 235,525 234,524 231,524 230,523 226,523 225,522 221,522 220,521 217,521 216,520 212,520 211,519 207,519 206,518 203,518 202,517 198,517 197,516 194,516 193,515 190,515 189,514 187,514 186,513 184,513 183,512 181,512 180,511 179,511 178,510 177,510 175,508 174,508 169,503 169,502 168,501 168,500 167,499 167,498 166,497 166,487 167,486 167,483 168,482 168,481 171,478 171,477 173,475 174,475 176,473 177,473 178,472 179,472 180,471 181,471 182,470 184,470 185,469 187,469 188,468 193,468 194,467 200,467 201,466 225,466 226,467 235,467 236,468 243,468 244,469 249,469 250,470 256,470 257,471 261,471 262,472 266,472 267,473 270,473 271,474 275,474 276,475 279,475 280,476 283,476 284,477 284,442 283,442 282,441 278,441 277,440 272,440 271,439 266,439 265,438 260,438 259,437 253,437 252,436 244,436 243,435 229,435 228,434" /><polygon fill="black" points="858,360 857,361 854,361 853,362 852,362 851,363 850,363 849,364 848,364 847,365 846,365 841,370 841,371 839,373 839,374 838,375 838,376 837,377 837,379 836,380 836,393 837,394 837,396 838,397 838,399 840,401 840,402 847,409 848,409 849,410 850,410 851,411 852,411 853,412 855,412 856,413 861,413 862,414 863,413 868,413 869,412 872,412 873,411 874,411 875,410 876,410 878,408 879,408 883,404 883,403 885,401 885,400 886,399 886,398 887,397 887,395 888,394 888,391 889,390 889,385 888,384 888,379 887,378 887,376 886,375 886,374 884,372 884,371 878,365 877,365 875,363 874,363 873,362 871,362 870,361 867,361 866,360" /><polygon fill="black" points="652,351 652,353 651,354 651,355 650,356 650,358 649,359 649,361 648,362 648,363 647,364 647,366 646,367 646,369 645,370 645,371 644,372 644,374 643,375 643,377 642,378 642,380 641,381 641,383 640,384 640,385 639,386 639,388 638,389 638,391 637,392 637,393 636,394 636,396 635,397 635,399 634,400 634,401 633,402 633,404 632,405 632,407 631,408 631,409 630,410 630,412 629,413 629,415 628,416 628,418 627,419 627,421 626,422 626,423 625,424 625,426 624,427 624,429 623,430 623,432 622,433 622,434 621,435 621,437 620,438 620,440 619,441 619,443 618,444 618,445 617,446 617,448 616,449 616,451 615,452 615,453 614,454 614,456 613,457 613,459 612,460 612,462 611,463 611,464 610,465 610,467 609,468 609,470 608,471 608,472 607,473 607,475 606,476 606,478 605,479 605,481 604,482 604,483 603,484 603,486 602,487 602,489 601,490 601,492 600,493 600,494 599,495 599,497 598,498 598,500 597,501 597,503 596,504 596,505 595,506 595,508 594,509 594,511 593,512 593,514 592,515 592,516 591,517 591,519 590,520 590,522 589,523 589,524 588,525 588,527 587,528 587,530 586,531 586,532 585,533 585,535 584,536 584,538 583,539 583,541 582,542 582,543 581,544 581,546 580,547 580,549 579,550 579,552 578,553 578,554 577,555 577,557 576,558 576,560 575,561 575,562 574,563 574,565 573,566 573,568 572,569 572,571 571,572 571,573 570,574 570,576 569,577 569,579 568,580 568,582 567,583 567,584 566,585 566,587 565,588 565,590 564,591 564,593 563,594 563,595 562,596 562,598 561,599 561,601 560,602 560,604 559,605 559,607 558,608 558,610 557,611 557,612 556,613 556,615 555,616 555,618 554,619 554,621 553,622 553,624 552,625 552,626 551,627 551,629 550,630 550,632 549,633 549,635 548,636 548,637 547,638 547,640 546,641 546,642 588,642 588,640 589,639 589,637 590,636 590,634 591,633 591,632 592,631 592,629 593,628 593,626 594,625 594,623 595,622 595,621 596,620 596,618 597,617 597,615 598,614 598,613 599,612 599,610 600,609 600,607 601,606 601,604 602,603 602,602 603,601 603,599 604,598 604,597 605,596 605,594 606,593 606,591 607,590 607,588 608,587 608,586 609,585 609,583 610,582 610,580 611,579 611,578 612,577 612,575 613,574 613,572 614,571 614,569 615,568 615,567 616,566 616,564 618,562 740,562 741,563 741,564 742,565 742,567 743,568 743,570 744,571 744,572 745,573 745,575 746,576 746,578 747,579 747,581 748,582 748,583 749,584 749,586 750,587 750,589 751,590 751,592 752,593 752,594 753,595 753,597 754,598 754,600 755,601 755,603 756,604 756,606 757,607 757,608 758,609 758,611 759,612 759,614 760,615 760,617 761,618 761,619 762,620 762,622 763,623 763,625 764,626 764,628 765,629 765,631 766,632 766,633 767,634 767,636 768,637 768,639 769,640 769,642 814,642 814,641 813,640 813,638 812,637 812,636 811,635 811,633 810,632 810,630 809,629 809,627 808,626 808,625 807,624 807,622 806,621 806,619 805,618 805,617 804,616 804,614 803,613 803,611 802,610 802,609 801,608 801,606 800,605 800,603 799,602 799,600 798,599 798,598 797,597 797,595 796,594 796,593 795,592 795,590 794,589 794,587 793,586 793,584 792,583 792,581 791,580 791,579 790,578 790,576 789,575 789,573 788,572 788,571 787,570 787,568 786,567 786,565 785,564 785,563 784,562 784,560 783,559 783,557 782,556 782,554 781,553 781,552 780,551 780,549 779,548 779,547 778,546 778,544 777,543 777,541 776,540 776,539 775,538 775,536 774,535 774,533 773,532 773,530 772,529 772,528 771,527 771,525 770,524 770,522 769,521 769,520 768,519 768,517 767,516 767,514 766,513 766,512 765,511 765,509 764,508 764,506 763,505 763,503 762,502 762,501 761,500 761,498 760,497 760,495 759,494 759,493 758,492 758,490 757,489 757,487 756,486 756,485 755,484 755,482 754,481 754,479 753,478 753,476 752,475 752,474 751,473 751,471 750,470 750,468 749,467 749,465 748,464 748,463 747,462 747,460 746,459 746,457 745,456 745,455 744,454 744,452 743,451 743,449 742,448 742,447 741,446 741,444 740,443 740,441 739,440 739,439 738,438 738,436 737,435 737,433 736,432 736,430 735,429 735,427 734,426 734,425 733,424 733,422 732,421 732,419 731,418 731,416 730,415 730,414 729,413 729,411 728,410 728,409 727,408 727,406 726,405 726,403 725,402 725,400 724,399 724,398 723,397 723,395 722,394 722,392 721,391 721,389 720,388 720,387 719,386 719,384 718,383 718,381 717,380 717,379 716,378 716,376 715,375 715,373 714,372 714,370 713,369 713,368 712,367 712,365 711,364 711,362 710,361 710,360 709,359 709,357 708,356 708,354 707,353 707,351" /><polygon fill="black" points="328,346 328,575 327,576 327,577 328,578 327,579 328,580 327,581 327,582 328,583 327,584 327,591 328,592 328,593 327,594 328,595 327,596 327,642 364,642 364,533 365,532 375,542 375,543 376,543 377,544 377,545 391,559 391,560 403,572 403,573 416,586 416,587 429,600 429,601 438,610 438,611 446,619 446,620 456,630 456,631 464,639 464,640 466,642 517,642 516,641 516,640 515,640 514,639 514,638 505,629 505,628 499,622 499,621 486,608 486,607 470,591 470,590 410,530 418,522 419,522 431,510 432,510 441,501 442,501 443,500 443,499 445,497 446,497 455,488 456,488 468,476 469,476 480,465 481,465 490,456 491,456 504,443 505,443 511,437 463,437 462,438 461,438 460,439 460,440 459,441 458,441 446,453 445,453 434,464 433,464 423,474 422,474 410,486 409,486 399,496 398,496 388,506 387,506 372,521 371,521 365,527 364,526 364,346" /></svg>